<?xml version="1.0" encoding="UTF-8" standalone="no"?>
<svg
   width="23"
   height="23"
   version="1.1"
   viewBox="0 0 6.0854167 6.0854167"
   id="svg16"
   sodipodi:docname="tilew.svg"
   inkscape:version="1.1 (c4e8f9ed74, 2021-05-24)"
   inkscape:export-filename="/home/jp/.config/awesome/themes/suit_theme/layouts/fullscreen.png"
   inkscape:export-xdpi="96"
   inkscape:export-ydpi="96"
   xmlns:inkscape="http://www.inkscape.org/namespaces/inkscape"
   xmlns:sodipodi="http://sodipodi.sourceforge.net/DTD/sodipodi-0.dtd"
   xmlns="http://www.w3.org/2000/svg"
   xmlns:svg="http://www.w3.org/2000/svg">
  <defs
     id="defs20" />
  <sodipodi:namedview
     id="namedview18"
     pagecolor="#505050"
     bordercolor="#eeeeee"
     borderopacity="1"
     inkscape:pageshadow="0"
     inkscape:pageopacity="0"
     inkscape:pagecheckerboard="0"
     showgrid="false"
     width="23px"
     inkscape:zoom="22.627417"
     inkscape:cx="7.5130096"
     inkscape:cy="18.141708"
     inkscape:window-width="947"
     inkscape:window-height="1041"
     inkscape:window-x="963"
     inkscape:window-y="29"
     inkscape:window-maximized="0"
     inkscape:current-layer="g14" />
  <g
     transform="translate(0.42196,0.38292)"
     id="g14">
    <path
       id="rect2"
       style="fill:#dfdfdf"
       d="M 4.5 3.5 C 3.946 3.5 3.5 3.946007 3.5 4.5 L 3.5 18.5 C 3.5 19.053993 3.946 19.5 4.5 19.5 L 18.5 19.5 C 19.054 19.5 19.5 19.053993 19.5 18.5 L 19.5 4.5 C 19.5 3.946007 19.054 3.5 18.5 3.5 L 4.5 3.5 z M 13.339844 4.9824219 L 17.244141 4.9824219 C 17.697032 4.9824219 18.060547 5.345944 18.060547 5.7988281 L 18.060547 9.703125 L 13.339844 4.9824219 z M 4.9824219 13.339844 L 9.703125 18.060547 L 5.7988281 18.060547 C 5.3459385 18.060547 4.9824219 17.697025 4.9824219 17.244141 L 4.9824219 13.339844 z "
       transform="matrix(0.26458333,0,0,0.26458333,-0.42196,-0.38292)" />
  </g>
</svg>
